<svg 
 xmlns="http://www.w3.org/2000/svg"
 xmlns:xlink="http://www.w3.org/1999/xlink"
 width="20px" height="26px">
<path
 d="M10.000,25.800 C10.000,25.800 0.400,15.101 0.400,9.800 C0.400,4.499 4.698,0.200 10.000,0.200 C15.302,0.200 19.600,4.499 19.600,9.800 C19.600,15.101 10.000,25.800 10.000,25.800 ZM10.000,3.400 C6.466,3.400 3.600,6.265 3.600,9.800 C3.600,13.334 6.466,16.200 10.000,16.200 C13.534,16.200 16.400,13.334 16.400,9.800 C16.400,6.265 13.534,3.400 10.000,3.400 ZM10.000,13.000 C8.233,13.000 6.800,11.567 6.800,9.800 C6.800,8.032 8.233,6.600 10.000,6.600 C11.767,6.600 13.200,8.032 13.200,9.800 C13.200,11.567 11.767,13.000 10.000,13.000 Z"/>
</svg>